<svg id="Capa_1" data-name="Capa 1" xmlns="http://www.w3.org/2000/svg" viewBox="0 0 139.15 27.95"><defs><style>.cls-1{fill:#36d424;}.cls-2{fill:#009200;}.cls-3{fill:#006300;}.cls-4{fill:#0ec306;}.cls-5{font-size:18.47px;fill:#8c8c8c;font-family:Montserrat-Bold, Montserrat;font-weight:700;}.cls-6{letter-spacing:-0.01em;}.cls-7{letter-spacing:0em;}.cls-8{letter-spacing:0.04em;}.cls-9{letter-spacing:0em;}.cls-10{letter-spacing:-0.01em;}</style></defs><circle cx="13.97" cy="13.97" r="13.97"/><polygon class="cls-1" points="14.05 13.85 11.23 15.44 11.23 18.67 14.05 20.36 14.05 13.85"/><polygon class="cls-1" points="19.74 10.54 19.74 13.97 16.86 15.44 14.05 13.85 19.74 10.54"/><polygon class="cls-1" points="8.38 10.54 11.13 8.9 14.06 10.54 14.05 13.85 8.38 10.54"/><polygon class="cls-2" points="14.05 13.85 16.86 15.44 16.88 18.67 14.05 20.36 14.05 13.85"/><polygon class="cls-2" points="19.74 10.54 16.86 8.98 14.06 10.54 14.05 13.85 19.74 10.54"/><polygon class="cls-2" points="8.38 10.54 8.38 13.97 11.23 15.44 14.05 13.85 8.38 10.54"/><polygon class="cls-3" points="14.06 25.73 20.75 21.8 17.64 19.65 14.05 21.84 14.06 25.73"/><polygon class="cls-3" points="24.4 7.58 17.58 3.77 17.58 7.58 21.06 9.6 24.4 7.58"/><polygon class="cls-3" points="6.96 9.6 7.03 13.79 3.55 15.44 3.55 7.58 6.96 9.6"/><polygon class="cls-4" points="14.06 21.84 10.47 19.65 7.36 21.8 14.06 25.73 14.06 21.84"/><polygon class="cls-4" points="21.07 9.6 21.07 13.96 24.4 15.44 24.4 7.58 21.07 9.6"/><polygon class="cls-4" points="3.55 7.58 10.45 3.77 10.45 7.58 6.96 9.6 3.55 7.58"/><text class="cls-5" transform="translate(33.08 20.43)">D<tspan class="cls-6" x="15.26" y="0">e</tspan><tspan class="cls-7" x="26.73" y="0">vBa</tspan><tspan class="cls-8" x="63.31" y="0">l</tspan><tspan class="cls-9" x="69.59" y="0">ti</tspan><tspan class="cls-10" x="83.18" y="0">c</tspan><tspan x="93.97" y="0">o</tspan></text></svg>